<?xml version="1.0" encoding="UTF-8"?>
<svg id="Layer_2" data-name="Layer 2" xmlns="http://www.w3.org/2000/svg" viewBox="0 0 382.65 382.65">
  <defs>
    <style>
      .cls-1 {
        fill: none;
      }

      .cls-2 {
        fill: #fff;
      }
    </style>
  </defs>
  <g id="Layer_1-2" data-name="Layer 1">
    <g>
      <circle class="cls-1" cx="191.33" cy="191.33" r="191.33"/>
      <g>
        <path class="cls-2" d="M112.33,317.83c-26.64,0-47.5-14.71-47.5-33.5s20.86-33.5,47.5-33.5,47.5,14.71,47.5,33.5-20.86,33.5-47.5,33.5ZM112.33,266.83c-18.56,0-31.5,9.22-31.5,17.5s12.94,17.5,31.5,17.5,31.5-9.22,31.5-17.5-12.94-17.5-31.5-17.5Z"/>
        <path class="cls-2" d="M159.83,142.62v141.21c0,4.42-3.58,8-8,8s-8-3.58-8-8v-148.01c0,.43.04.87.11,1.31.64,3.92,4.03,6.7,7.88,6.7.43,0,.87-.03,1.31-.11l6.7-1.1Z"/>
        <path class="cls-2" d="M246.33,295.83c-26.64,0-47.5-14.71-47.5-33.5s20.86-33.5,47.5-33.5,47.5,14.71,47.5,33.5-20.86,33.5-47.5,33.5ZM246.33,244.83c-18.56,0-31.5,9.22-31.5,17.5s12.94,17.5,31.5,17.5,31.5-9.22,31.5-17.5-12.94-17.5-31.5-17.5Z"/>
        <path class="cls-2" d="M293.83,113.84v147.99c0,4.42-3.58,8-8,8s-8-3.58-8-8V123.25l9.3-1.53c3.92-.64,6.7-4.03,6.7-7.88Z"/>
        <path class="cls-2" d="M293.83,80.83v33.01c0,3.85-2.78,7.24-6.7,7.88l-9.3,1.53-118,19.37-6.7,1.1c-.44.08-.88.11-1.31.11-3.85,0-7.24-2.78-7.88-6.7-.07-.44-.11-.88-.11-1.31v-33.01c0-.2.01-.4.03-.6,0-.07,0-.13,0-.2.02-.2.05-.41.09-.61.03-.19.07-.38.12-.57.02-.06.03-.11.05-.16.05-.2.11-.39.19-.59.01-.02.01-.04.03-.07.06-.18.13-.36.22-.53.21-.47.47-.92.77-1.33.1-.14.21-.28.32-.41.03-.04.05-.07.08-.09.14-.17.28-.33.44-.48.14-.15.3-.29.46-.42.03-.04.06-.06.1-.09.15-.13.31-.25.47-.35.42-.31.86-.57,1.34-.78.13-.06.27-.11.41-.17.1-.03.19-.07.29-.1.18-.06.37-.12.56-.17t.02-.01c.23-.05.46-.1.7-.14l.26-.04,133.42-21.91.32-.05c.22-.03.44-.06.66-.08.21-.02.43-.03.64-.03h.02c.2,0,.4.01.6.03.07,0,.13.01.2.01.2.02.41.05.61.09.19.03.38.07.57.12.06.02.11.03.16.05.2.05.39.11.59.19.02.01.04.01.07.03.18.06.36.13.53.22.47.21.92.47,1.33.77.14.1.28.21.41.32.04.03.07.05.09.08.17.14.33.28.48.44.15.14.29.3.42.46.04.03.06.06.09.1.13.15.25.31.35.47.31.42.57.86.78,1.34.06.13.11.27.17.41.03.1.07.19.1.29.06.18.12.37.17.56t.01.02c.05.23.1.46.14.7.03.22.06.44.08.66.02.21.03.43.03.64Z"/>
      </g>
    </g>
  </g>
</svg>