<?xml version="1.0" encoding="UTF-8"?>
<svg id="Layer_2" data-name="Layer 2" xmlns="http://www.w3.org/2000/svg" viewBox="0 0 382.65 382.65">
  <defs>
    <style>
      .cls-1, .cls-2, .cls-3, .cls-4 {
        fill: none;
      }

      .cls-2 {
        stroke-miterlimit: 10;
      }

      .cls-2, .cls-3, .cls-4 {
        stroke: #fff;
      }

      .cls-3 {
        stroke-linecap: round;
      }

      .cls-3, .cls-4 {
        stroke-linejoin: round;
        stroke-width: 16px;
      }
    </style>
  </defs>
  <g id="Layer_1-2" data-name="Layer 1">
    <g>
      <circle class="cls-1" cx="191.33" cy="191.33" r="191.33"/>
      <g>
        <path class="cls-4" d="M291.85,279.43H90.8c18.28-23.05,29.19-72.73,29.19-104.43v-17.18c0-.49,0-.98.02-1.46.77-38.72,32.41-69.87,71.31-69.87s70.54,31.14,71.31,69.87c0,.48.02.97.02,1.46v17.18c0,31.7,10.92,81.38,29.19,104.43Z"/>
        <line class="cls-2" x1="289.7" y1="282.23" x2="289.05" y2="282.23"/>
        <line class="cls-2" x1="191.65" y1="282.23" x2="191" y2="282.23"/>
        <path class="cls-3" d="M168.95,303.67c2.44,2.62,9.84,9.83,20.66,10.26,12.07.48,20.39-7.79,22.7-10.26"/>
        <path class="cls-3" d="M242.14,68.7c4.97,1.74,13.91,5.61,22.38,13.99,8.72,8.63,12.7,17.85,14.45,22.84"/>
        <path class="cls-3" d="M140.98,68.7c-4.97,1.74-13.91,5.61-22.38,13.99-8.72,8.63-12.7,17.85-14.45,22.84"/>
      </g>
    </g>
  </g>
</svg>