<?xml version="1.0" encoding="UTF-8"?>
<svg id="Layer_2" data-name="Layer 2" xmlns="http://www.w3.org/2000/svg" viewBox="0 0 1867 214.46">
  <defs>
    <style>
      .cls-1 {
        fill: #aa8dd8;
      }
    </style>
  </defs>
  <g id="Layer_1-2" data-name="Layer 1">
    <g>
      <path class="cls-1" d="M106.71,1.05c28.98,0,56.1,11.42,76.35,32.16l4.01,4.11-42.1,42.1-4.11-4.29c-9-9.42-21.14-14.61-34.16-14.61-26.05,0-47.24,21.19-47.24,47.24s21.19,47.24,47.24,47.24c15.55,0,29.36-7.55,37.98-19.18h-58.77l42.64-47.67h33.56l47.67,47.67h-.17l.16.05-.68,2.06c-6.37,21.64-19.82,41.11-37.87,54.83-18.68,14.2-40.99,21.7-64.52,21.7C47.87,214.46,0,166.59,0,107.75S47.87,1.04,106.71,1.04h0ZM106.71,12.67C54.92,12.67,12.69,54.3,11.67,105.86h12.31c1.02-44.77,37.72-80.88,82.73-80.88,20.62,0,39.99,7.46,55.18,21.1l8.73-8.73c-17.52-15.96-40-24.68-63.91-24.68h0ZM12.1,117.47c4.88,47.89,45.45,85.38,94.6,85.38,41.5,0,78.67-27.5,90.87-67.03h-12.97c-11.68,32.61-42.57,54.73-77.9,54.73-42.36,0-77.37-31.98-82.19-73.07h-12.42ZM106.71,36.6c-38.6,0-70.1,30.9-71.12,69.26h12.31c1.01-31.57,27-56.95,58.81-56.95,14.23,0,27.61,4.97,38.25,14.11l8.71-8.71c-12.98-11.45-29.44-17.71-46.96-17.71h0ZM36.21,117.47c4.75,34.66,34.54,61.45,70.48,61.45,28.93,0,54.4-17.24,65.44-43.1h-13.71c-9.98,18.33-29.42,30.8-51.72,30.8-29.14,0-53.4-21.3-58.04-49.14h-12.45ZM117.89,117.47l-6.02,6.73h69.85l-6.73-6.73h-57.1ZM133.74,99.77l-5.45,6.09h35.09l-6.09-6.09h-23.55Z"/>
      <path class="cls-1" d="M426.99,208.64h-202.34L325.82,7.06l101.17,201.58ZM243.48,197.03h13.06l69.28-138.04,69.28,138.04h13.06l-82.34-164.07-82.34,164.07ZM269.54,197.03h13.06l43.22-86.12,43.22,86.12h13.06l-56.29-112.15-56.28,112.15ZM295.6,197.03h13.06l17.17-34.2,17.17,34.2h13.06l-30.23-60.22-30.23,60.22ZM321.66,197.03h8.33l-4.17-8.3-4.16,8.3Z"/>
      <path class="cls-1" d="M653.66,208.64h-204.37V4.86l102.19,101.55L653.67,4.86v203.78ZM460.91,197.21h11.23V57.55l139.47,139.67h14.18L460.91,32.92v164.29ZM483.87,197.21h10.99v-86.64l86.6,86.64h13.81l-111.4-111.89v111.89ZM506.44,197.22h11.17v-33.81l33.64,33.81h13.88l-58.7-58.75v58.75ZM529.17,197.22h5.75l-5.75-5.78v5.78ZM559.7,114.97l6.91,6.87,64.2-64.29v128.46l11.23,11.2V32.93l-82.34,82.04ZM574.67,129.94l7.06,7.02,26.38-26.39v52.55l10.99,11.29v-89.09l-44.42,44.62ZM590.03,145.25l6.53,6.53v-13.18l-6.53,6.65Z"/>
      <path class="cls-1" d="M877.89,66.45h-31.26l30.66,11.22.61.25v59.66h-.59s-30.13,0-30.13,0l30.74,11.17v59.96h-195.01v-59.91h30.05l-30.05-10.99v-60.13h30.66l-30.66-11.22V6.55h195.01l-.02,59.9ZM694.49,18.38v13.52h171.78v-13.52h-171.78ZM694.49,42.28v13.52h171.78v-13.52h-171.78ZM694.49,89.14v13.52h171.78v-13.52h-171.78ZM694.49,113.03v13.52h171.78v-13.52h-171.78ZM694.49,159.89v13.52h171.78v-13.52h-171.78ZM694.49,183.78v13.52h171.78v-13.52h-171.78ZM716.08,137.57l30.66,11.22h97.27l-30.87-11.22h-97.05ZM716.68,66.45l30.66,11.22h96.13l-30.66-11.22h-96.13Z"/>
      <path class="cls-1" d="M1245.34,107.14c0,59.08-48.06,107.14-107.14,107.14s-107.14-48.06-107.14-107.14S1079.12,0,1138.2,0s107.14,48.06,107.14,107.14ZM1066.71,43.88c-14.94,16.86-24.04,39.02-24.04,63.27,0,52.67,42.85,95.52,95.52,95.52,24.25,0,46.41-9.1,63.27-24.04l-8.79-8.79c-14.6,12.7-33.65,20.42-54.48,20.42-45.83,0-83.11-37.28-83.11-83.11,0-20.83,7.72-39.87,20.42-54.48l-8.79-8.79ZM1138.19,35.65c-17.62,0-33.77,6.42-46.25,17.04-1.48,1.26-2.91,2.56-4.28,3.93-1.37,1.37-2.67,2.81-3.93,4.28-10.61,12.48-17.04,28.62-17.04,46.25s6.42,33.77,17.04,46.25l8.8-8.8c-8.38-10.2-13.42-23.25-13.42-37.45s5.04-27.25,13.42-37.45c1.23-1.5,2.53-2.94,3.9-4.31,1.37-1.37,2.81-2.67,4.31-3.9,10.2-8.38,23.25-13.42,37.45-13.42s27.25,5.04,37.45,13.42l8.8-8.8c-12.48-10.61-28.62-17.04-46.25-17.04h0ZM1138.2,11.62c-24.25,0-46.41,9.1-63.27,24.04l8.8,8.79c14.6-12.7,33.65-20.42,54.48-20.42,45.83,0,83.11,37.28,83.11,83.11,0,20.83-7.72,39.87-20.42,54.48l8.79,8.79c14.94-16.86,24.04-39.02,24.04-63.27,0-52.67-42.85-95.52-95.52-95.52h0ZM1100.8,77.96c-6.3,8.06-10.07,18.18-10.07,29.18s3.77,21.12,10.07,29.18c1.2,1.53,2.48,2.99,3.85,4.37,1.37,1.37,2.84,2.65,4.37,3.85,8.06,6.3,18.18,10.07,29.18,10.07s21.12-3.77,29.18-10.07l-8.86-8.86c-5.74,4.1-12.75,6.52-20.32,6.52s-14.58-2.42-20.32-6.52c-1.59-1.13-3.08-2.39-4.45-3.76-1.37-1.37-2.63-2.87-3.76-4.45-4.1-5.74-6.52-12.75-6.52-20.32s2.42-14.58,6.52-20.32l-8.87-8.87ZM1183.86,69.7c8.38,10.2,13.42,23.25,13.42,37.45s-5.04,27.25-13.42,37.45c-1.23,1.5-2.53,2.94-3.9,4.31-1.37,1.37-2.81,2.67-4.31,3.9-10.2,8.38-23.25,13.42-37.45,13.42s-27.25-5.04-37.45-13.42l-8.8,8.8c12.48,10.61,28.62,17.04,46.25,17.04s33.77-6.42,46.25-17.04c1.48-1.26,2.91-2.56,4.28-3.93,1.37-1.37,2.67-2.81,3.93-4.28,10.61-12.48,17.04-28.62,17.04-46.25s-6.42-33.77-17.04-46.25l-8.79,8.79ZM1138.2,59.69c-11,0-21.12,3.77-29.18,10.07l8.86,8.86c5.74-4.1,12.75-6.52,20.32-6.52s14.58,2.42,20.32,6.52c1.59,1.13,3.08,2.39,4.45,3.76,1.37,1.37,2.63,2.87,3.76,4.45,4.1,5.74,6.52,12.75,6.52,20.32s-2.42,14.58-6.52,20.32l8.86,8.86c6.3-8.06,10.07-18.18,10.07-29.18s-3.77-21.12-10.07-29.18c-1.2-1.53-2.47-2.99-3.85-4.37-1.37-1.37-2.84-2.65-4.37-3.85-8.06-6.3-18.18-10.07-29.18-10.07h0ZM1138.19,83.7c-4.36,0-8.43,1.22-11.93,3.29-1.69,1-3.26,2.19-4.64,3.58-1.38,1.38-2.57,2.95-3.58,4.64-2.08,3.5-3.29,7.57-3.29,11.93s1.22,8.43,3.3,11.93c1,1.69,2.19,3.26,3.57,4.64s2.95,2.57,4.64,3.58c3.5,2.08,7.57,3.29,11.93,3.29s8.43-1.22,11.93-3.29c1.69-1,3.26-2.19,4.64-3.58s2.57-2.95,3.58-4.64c2.08-3.5,3.29-7.57,3.29-11.93s-1.22-8.43-3.29-11.93c-1-1.69-2.19-3.26-3.58-4.64s-2.95-2.57-4.64-3.58c-3.5-2.08-7.57-3.29-11.93-3.29h0Z"/>
      <path class="cls-1" d="M1343.52,208.38L1241.52,6.49h204l-102,201.89ZM1273.66,18.11h-13.25l83.1,164.55,83.1-164.55h-13.27l-69.83,137.93-69.83-137.93v-.03.03ZM1387.03,18.11l-43.52,85.58-43.52-85.58h-13.28l56.8,112.26,56.8-112.26h-13.28ZM1360.64,18.11l-17.13,33.23-17.13-33.23h-13.35l30.48,60.04,30.48-60.04h-13.35ZM1339.47,18.11l4.03,7.75,4.03-7.75h-8.07Z"/>
      <path class="cls-1" d="M1663.03,66.45h-31.26l30.66,11.22.61.25v59.66h-.59s-30.13,0-30.13,0l30.74,11.17v59.96h-195.01v-59.91h30.05l-30.05-10.99v-60.13h30.66l-30.66-11.22V6.55h195.01l-.02,59.9ZM1479.63,18.38v13.52h171.78v-13.52h-171.78ZM1479.63,42.28v13.52h171.78v-13.52h-171.78ZM1479.63,89.14v13.52h171.78v-13.52h-171.78ZM1479.63,113.03v13.52h171.78v-13.52h-171.78ZM1479.63,159.89v13.52h171.78v-13.52h-171.78ZM1479.63,183.78v13.52h171.78v-13.52h-171.78ZM1501.22,137.57l30.66,11.22h97.27l-30.87-11.22h-97.05ZM1501.82,66.45l30.66,11.22h96.13l-30.66-11.22h-96.13Z"/>
      <path class="cls-1" d="M1790.27,6.63c12.48,0,24.16,3.48,34.1,9.52,1.81,1.1,3.56,2.28,5.24,3.54.84.63,1.67,1.28,2.49,1.95,3.25,2.68,6.23,5.66,8.91,8.91,1.34,1.62,2.6,3.31,3.79,5.06,3.55,5.25,6.35,11.04,8.27,17.21.96,3.09,1.7,6.28,2.2,9.54.5,3.26.76,6.61.76,10.01s-.26,6.75-.76,10.01c-.5,3.26-1.24,6.45-2.2,9.54-1.92,6.18-4.73,11.96-8.27,17.21-.59.87-1.2,1.73-1.83,2.58-.63.84-1.28,1.67-1.95,2.49-3.35,4.06-7.18,7.71-11.4,10.87-1.69,1.26-3.44,2.44-5.24,3.54-3.18,1.93-6.55,3.59-10.05,4.96l52.68,75.06h-69.33l-44.12-60.43v60.2h-60.5V6.61l97.22.03ZM1704.65,91.4v105.41h12.83v-105.41h-12.83ZM1704.66,18.24v35.14h12.83V18.24h-12.83ZM1704.8,65v14.79h83.8c4.08,0,7.4-3.32,7.4-7.39s-3.32-7.4-7.4-7.4h-83.8ZM1729.09,114.78v82.04h12.83v-82.04h-12.83ZM1729.1,18.24v11.77h60.33c5.49,0,10.73,1.04,15.54,2.94,2.89,1.14,5.62,2.59,8.16,4.3.37.25.72.51,1.07.77l8.74-8.74c-9.09-6.91-20.42-11.02-32.69-11.02h-42.53s-18.64-.01-18.64-.01ZM1729.11,41.63v11.76h59.49c1.31,0,2.59.13,3.83.39.62.13,1.23.28,1.82.47.92.29,1.79.66,2.65,1.08l8.93-8.93c-4.75-3.01-10.37-4.76-16.4-4.76h-60.33ZM1796.71,89.56c-2.46,1.16-5.21,1.84-8.11,1.84h-59.49v11.76h60.32c5.95,0,11.51-1.71,16.23-4.65l-8.94-8.95ZM1814.03,106.89c-6.94,4.96-15.43,7.88-24.6,7.88h-35.89v11.76h36.72c3.83,0,7.57-.41,11.18-1.17,2.03-.43,4.01-.98,5.96-1.63,5.59-1.87,10.78-4.62,15.4-8.09l-8.75-8.75ZM1760.55,138.16l43,58.89h13.63l-42.17-58.89h-14.45ZM1802.49,137c-3.97.75-8.05,1.15-12.24,1.15h-.96l42.18,58.89h13.17l-42.15-60.04ZM1805.31,63.32c1.46,2.69,2.29,5.78,2.29,9.07s-.88,6.51-2.4,9.25l8.99,8.99c3.77-5.1,6-11.41,6-18.23s-2.19-12.99-5.88-18.07l-9,8.99ZM1822.61,46.04c.26.33.53.66.79,1,5.29,7.07,8.42,15.85,8.42,25.36,0,10.04-3.5,19.25-9.33,26.52l8.78,8.78c8.18-9.49,13.14-21.82,13.14-35.3s-4.91-25.68-13-35.14l-8.79,8.79Z"/>
    </g>
  </g>
</svg>