<?xml version="1.0" encoding="UTF-8"?>
<svg xmlns="http://www.w3.org/2000/svg" version="1.1" viewBox="0 0 923.2 135.5">
  <defs>
    <style>
      .cls-1 {
        isolation: isolate;
      }

      .cls-2 {
        fill: #aa8dd8;
      }
    </style>
  </defs>
  <!-- Generator: Adobe Illustrator 28.7.1, SVG Export Plug-In . SVG Version: 1.2.0 Build 142)  -->
  <g>
    <g id="Layer_2">
      <g id="Layer_1-2">
        <g class="cls-1">
          <g class="cls-1">
            <path class="cls-2" d="M69.8,105.3h-5L15.4,55.8v49.5h-4v-58.2l58.4,58.2ZM59,105.3h-4.9l-30.7-30.7v30.7h-3.9v-39.6l39.5,39.6ZM48.3,105.3h-4.9l-11.9-12v12h-4v-20.8l20.8,20.8ZM37.6,105.3h-2v-2l2,2ZM75.6,105.3l-4-4v-45.5l-22.7,22.8-2.4-2.4,29.2-29.1v58.2ZM67.4,97.2l-3.9-4v-18.6l-9.3,9.3-2.5-2.5,15.7-15.8v31.6ZM59.5,89.2l-2.3-2.3,2.3-2.4v4.7Z"/>
            <path class="cls-2" d="M104.5,54c-4.5,5.2-7.2,11.9-7.2,19.3,0,16.2,13.2,29.4,29.4,29.4s14.1-2.7,19.3-7.2l3.1,3.1c-6,5.3-13.8,8.5-22.4,8.5-18.7,0-33.8-15.2-33.8-33.8s3.2-16.4,8.5-22.4l3.1,3.1ZM126.7,48c6.2,0,12,2.3,16.4,6l-3.1,3.1c-3.6-3-8.2-4.8-13.3-4.8s-9.7,1.8-13.3,4.8c-.5.4-1,.9-1.5,1.4-.5.5-.9,1-1.4,1.5-3,3.6-4.8,8.2-4.8,13.3s1.8,9.7,4.8,13.3l-3.1,3.1c-3.8-4.4-6-10.1-6-16.4s2.3-12,6-16.4c.4-.5.9-1,1.4-1.5.5-.5,1-.9,1.5-1.4,4.4-3.8,10.1-6,16.4-6h0ZM126.7,39.5c18.7,0,33.8,15.2,33.8,33.8s-3.2,16.4-8.5,22.4l-3.1-3.1c4.5-5.2,7.2-11.9,7.2-19.3,0-16.2-13.2-29.4-29.4-29.4s-14.1,2.7-19.3,7.2l-3.1-3.1c6-5.3,13.8-8.5,22.4-8.5h0ZM116.6,66.1c-1.5,2-2.3,4.5-2.3,7.2s.9,5.2,2.3,7.2c.4.6.8,1.1,1.3,1.6.5.5,1,.9,1.6,1.3,2,1.5,4.5,2.3,7.2,2.3s5.2-.9,7.2-2.3l3.1,3.1c-2.9,2.2-6.4,3.6-10.3,3.6s-7.5-1.3-10.3-3.6c-.5-.4-1.1-.9-1.5-1.4s-.9-1-1.4-1.5c-2.2-2.9-3.6-6.4-3.6-10.3s1.3-7.5,3.6-10.3l3.1,3.1ZM146,57c3.8,4.4,6,10.1,6,16.4s-2.3,12-6,16.4c-.4.5-.9,1-1.4,1.5-.5.5-1,.9-1.5,1.4-4.4,3.8-10.1,6-16.4,6s-12-2.3-16.4-6l3.1-3.1c3.6,3,8.2,4.8,13.3,4.8s9.7-1.8,13.3-4.8c.5-.4,1-.9,1.5-1.4.5-.5.9-1,1.4-1.5,3-3.6,4.8-8.2,4.8-13.3s-1.8-9.7-4.8-13.3l3.1-3.1ZM126.7,56.5c3.9,0,7.5,1.3,10.3,3.6.5.4,1.1.9,1.5,1.4.5.5.9,1,1.4,1.5,2.2,2.9,3.6,6.4,3.6,10.3s-1.3,7.5-3.6,10.3l-3.1-3.1c1.5-2,2.3-4.5,2.3-7.2s-.9-5.2-2.3-7.2c-.4-.6-.8-1.1-1.3-1.6-.5-.5-1-.9-1.6-1.3-2-1.5-4.5-2.3-7.2-2.3s-5.2.9-7.2,2.3l-3.1-3.1c2.9-2.2,6.4-3.6,10.3-3.6h0ZM126.7,65c1.5,0,3,.4,4.2,1.2.6.4,1.2.8,1.6,1.3s.9,1,1.3,1.6c.7,1.2,1.2,2.7,1.2,4.2s-.4,3-1.2,4.2c-.4.6-.8,1.2-1.3,1.6-.5.5-1,.9-1.6,1.3-1.2.7-2.7,1.2-4.2,1.2s-3-.4-4.2-1.2c-.6-.4-1.2-.8-1.6-1.3-.5-.5-.9-1-1.3-1.6-.7-1.2-1.2-2.7-1.2-4.2s.4-3,1.2-4.2c.4-.6.8-1.2,1.3-1.6s1-.9,1.6-1.3c1.2-.7,2.7-1.2,4.2-1.2h0Z"/>
            <path class="cls-2" d="M236.4,105.2h-5l-49.4-49.5v49.5h-4v-58.2l58.4,58.2ZM225.5,105.2h-4.9l-30.7-30.7v30.7h-3.9v-39.6l39.5,39.6ZM214.9,105.2h-4.9l-11.9-12v12h-4v-20.8l20.8,20.8ZM204.2,105.2h-2v-2l2,2ZM224.2,87.4l-4.3-4.3v-41.5h4.3v45.8ZM232.9,96.1l-4.3-4.3v-50.1h4.3v54.4ZM241.6,104.7l-4.3-4.3v-58.8h4.3v63.1Z"/>
            <path class="cls-2" d="M262,92c3.5,4.3,8.3,7.3,13.8,8.4,1.6.3,3.1.5,4.7.5,4,0,8-1,11.5-3l3.5,4.4c-12.7,7.7-29.1,4.5-38.1-7.1l4.7-3.1ZM270.2,86.7c2,2.2,4.6,3.6,7.5,4.2,2.8.6,5.6.3,8.2-.8l3.5,4.5c-3.9,2.1-8.4,2.7-12.8,1.8-4.4-.9-8.3-3.2-11.1-6.6l4.5-3h0c0,0,.2,0,.2,0ZM282.3,49.2c-4.6,3.3-7.7,8.2-8.9,13.7-1.1,5.2-.3,10.5,2.1,15.1h0c0,.1-2.3,1.6-2.3,1.6h0s-2.1,1.3-2.1,1.3c-6.7-12.3-3.3-27.8,8.2-36l2.9,4.3ZM289.6,73.9c.6,1.7.8,3.5.4,5.3-.5,2.6-2,4.8-4.2,6.2-2.2,1.4-4.8,2-7.3,1.4-1.8-.4-3.5-1.2-4.8-2.5l15.2-10h0s.6-.4.6-.4ZM287.6,56.9c-2.6,2-4.4,4.8-5.1,8-.6,2.7-.3,5.5.8,8,0,0,0,.1,0,.2l-4.4,2.9v-.2c-1.9-3.7-2.5-7.9-1.6-12,.9-4.5,3.5-8.5,7.2-11.2l2.9,4.3ZM295.5,39.8c8.4,0,16.7,3.8,22.1,10.9l-4.3,2.8c-3.3-4.2-7.9-7-13.1-8.1-4.9-1-9.9-.4-14.3,1.7l-3-4.3c4-2.1,8.3-3.1,12.6-3.1h0ZM290.5,59.8c3.6-2.3,8.1-1.9,11.2.8l-14.3,9.5h0s-.6.4-.6.4c-.5-1.5-.6-3.2-.3-4.9.5-2.4,1.9-4.5,4-5.8h0ZM299.3,49.4c4.2.9,7.8,3.1,10.5,6.3l-4.4,2.9c0-.1-.2-.2-.3-.3-3.6-3.7-9.1-5-13.9-3.4l-3-4.4c3.5-1.5,7.3-1.9,11.1-1.1h0ZM297.8,68.6c1.9,3.9,2.5,8.2,1.7,12.5-.9,4.4-3.2,8.3-6.6,11.1l-3.5-4.4c2.4-2,4-4.7,4.6-7.8.6-2.9.2-5.8-.9-8.4l4.7-3.1ZM305.9,63.2c6.8,12.3,3.8,27.8-7.1,36.6l-3.5-4.4c4.2-3.4,7.1-8.2,8.1-13.6,1.1-5.4.3-10.8-2.3-15.6l3.1-2.1h0s1.5-1,1.5-1Z"/>
            <path class="cls-2" d="M393.4,46.3h-63.7v-4.3h63.7v4.3ZM393.4,54.8h-63.7v-4.3h63.7v4.3ZM355.2,105.2h-4.3v-46.2h4.3v46.2ZM363.7,105.2h-4.3v-46.2h4.3v46.2ZM372.1,105.2h-4.3v-46.2h4.3v46.2Z"/>
            <path class="cls-2" d="M469.8,46.7h-60.8v-4.8h60.8v4.8ZM469.8,55.2h-60.8v-4.8h60.8v4.8ZM469.8,71.8h-60.8v-4.8h60.8v4.8ZM469.8,80.2h-60.8v-4.8h60.8v4.8ZM469.8,96.8h-60.8v-4.8h60.8v4.8ZM469.8,105.3h-60.8v-4.8h60.8v4.8ZM462,88.1h-34.5l-10.9-4h34.4l10.9,4ZM461.8,62.9h-34.1l-10.9-4h34.1l10.9,4Z"/>
            <path class="cls-2" d="M493.2,54.3h-4.5v-12.5h4.5v12.5ZM493.2,105.1h-4.5v-37.3h4.5v37.3ZM518.4,58.4c1.4,0,2.6,1.2,2.6,2.6s-1.2,2.6-2.6,2.6h-29.7v-5.2h29.7ZM519,41.9c4.3,0,8.4,1.5,11.6,3.9l-3.1,3.1c-.1,0-.3-.2-.4-.3-.9-.6-1.9-1.1-2.9-1.5-1.7-.7-3.6-1-5.5-1h-21.4v-4.2h21.7ZM501.9,105.1h-4.5v-29.1h4.5v29.1ZM518.7,50.1c2.1,0,4.1.6,5.8,1.7l-3.2,3.2c-.3-.1-.6-.3-.9-.4-.2,0-.4-.1-.6-.2-.4,0-.9-.1-1.4-.1h-21.1v-4.2h21.4ZM524.5,70.3c-1.7,1-3.6,1.6-5.7,1.6h-21.4v-4.2h21.1c1,0,2-.2,2.9-.7l3.2,3.2ZM530.6,76.3c-1.6,1.2-3.5,2.2-5.5,2.9-.7.2-1.4.4-2.1.6-1.3.3-2.6.4-4,.4h-13v-4.2h12.7c3.3,0,6.3-1,8.7-2.8l3.1,3.1ZM528.6,105.2h-4.8l-15.2-20.9h5.1l14.9,20.9ZM538.3,105.2h-4.7l-14.9-20.9h.3c1.5,0,2.9-.1,4.3-.4l14.9,21.3ZM527.6,54.6c1.3,1.8,2.1,4,2.1,6.4s-.8,4.6-2.1,6.5l-3.2-3.2c.5-1,.9-2.1.9-3.3s-.3-2.3-.8-3.2l3.2-3.2ZM533.6,48.6c2.9,3.4,4.6,7.7,4.6,12.4s-1.8,9.1-4.7,12.5l-3.1-3.1c2.1-2.6,3.3-5.8,3.3-9.4s-1.1-6.5-3-9c0-.1-.2-.2-.3-.4l3.1-3.1Z"/>
            <path class="cls-2" d="M660.2,105.3h-5l-49.4-49.5v49.5h-4v-58.2l58.4,58.2ZM649.4,105.3h-4.9l-30.7-30.7v30.7h-3.9v-39.6l39.5,39.6ZM638.8,105.3h-4.9l-11.9-12v12h-4v-20.8l20.8,20.8ZM628.1,105.3h-2v-2l2,2ZM666,105.3l-4-4v-45.5l-22.7,22.8-2.4-2.4,29.2-29.1v58.2ZM657.9,97.2l-3.9-4v-18.6l-9.3,9.3-2.5-2.5,15.7-15.8v31.6ZM649.9,89.2l-2.3-2.3,2.3-2.4v4.7Z"/>
            <path class="cls-2" d="M742.8,105.2h-4.6l-24.5-48.9-24.5,48.9h-4.6l29.2-58.1,29.2,58.1ZM733.6,105.2h-4.6l-15.3-30.5-15.3,30.5h-4.6l19.9-39.7,19.9,39.7ZM724.4,105.2h-4.6l-6.1-12.1-6.1,12.1h-4.6l10.7-21.3,10.7,21.3ZM715.1,105.2h-3l1.5-2.9,1.5,2.9Z"/>
            <path class="cls-2" d="M770.6,105h-5.7l41.1-63.3h5.7l-41.1,63.3ZM799.1,45.1h-34v-3.3h36.1l-2.2,3.3ZM794.1,52.5h-29v-3.3h31.1l-2.2,3.3ZM789.4,59.9h-24.3v-3.3h26.4l-2.2,3.3ZM781.2,105h-5.7l41.1-63.3h5.7l-41.1,63.3ZM791.8,105h-5.7l41.1-63.3h5.7l-41.1,63.3ZM836.5,105.1h-39.9l2.2-3.3h37.7v3.3ZM836.5,97.6h-34.9l2.2-3.3h32.7v3.3ZM836.5,90.3h-30.2l2.2-3.3h28v3.3Z"/>
            <path class="cls-2" d="M915.8,46.7h-60.8v-4.8h60.8v4.8ZM915.8,55.2h-60.8v-4.8h60.8v4.8ZM915.8,71.8h-60.8v-4.8h60.8v4.8ZM915.8,80.2h-60.8v-4.8h60.8v4.8ZM915.8,96.8h-60.8v-4.8h60.8v4.8ZM915.8,105.3h-60.8v-4.8h60.8v4.8ZM907.9,88.1h-34.5l-10.9-4h34.4l10.9,4ZM907.7,62.9h-34.1l-10.9-4h34.1l10.9,4Z"/>
          </g>
        </g>
      </g>
    </g>
  </g>
</svg>