<?xml version="1.0" encoding="UTF-8"?>
<svg id="Layer_2" xmlns="http://www.w3.org/2000/svg" viewBox="0 0 904.41 67.67">
  <defs>
    <style>
      .cls-1 {
        isolation: isolate;
      }

      .cls-2 {
        fill: #aa8dd8;
      }
    </style>
  </defs>
  <g id="Layer_2-2" data-name="Layer_2">
    <g id="Layer_1-2">
      <g class="cls-1">
        <g class="cls-1">
          <path class="cls-2" d="M58.4,65.75h-5.02L3.98,16.27v49.47H0V7.55l58.4,58.2ZM47.59,65.75h-4.89l-30.68-30.69v30.69h-3.89V26.11l39.46,39.63ZM36.92,65.75h-4.92l-11.92-11.98v11.98h-3.96v-20.81l20.79,20.81ZM26.21,65.75h-2.04v-2.05l2.04,2.05ZM64.16,65.75l-3.98-3.97V16.27l-22.74,22.77-2.45-2.44,29.17-29.06v58.2ZM56.03,57.67l-3.89-4v-18.61l-9.34,9.35-2.5-2.49,15.73-15.8v31.56ZM48.05,49.65l-2.31-2.31,2.31-2.35v4.67Z"/>
          <path class="cls-2" d="M93.05,14.54c-4.5,5.17-7.23,11.92-7.23,19.3,0,16.23,13.21,29.44,29.44,29.44,7.38,0,14.13-2.73,19.3-7.23l3.11,3.12c-5.97,5.29-13.82,8.52-22.41,8.52-18.66,0-33.84-15.18-33.84-33.84,0-8.59,3.22-16.44,8.52-22.41l3.11,3.11ZM115.26,8.51c6.24,0,11.96,2.28,16.38,6.03l-3.12,3.12c-3.61-2.97-8.24-4.75-13.27-4.75s-9.65,1.79-13.27,4.75c-.53.44-1.04.9-1.53,1.38-.48.48-.95,1-1.38,1.53-2.97,3.61-4.75,8.24-4.75,13.27s1.78,9.65,4.75,13.27l-3.12,3.12c-3.76-4.42-6.03-10.14-6.03-16.38s2.27-11.96,6.03-16.38c.45-.52.91-1.03,1.39-1.52.48-.49.99-.95,1.52-1.39,4.42-3.76,10.14-6.03,16.38-6.03h0ZM115.26,0c18.66,0,33.84,15.18,33.84,33.84,0,8.59-3.22,16.44-8.52,22.41l-3.11-3.12c4.5-5.17,7.23-11.92,7.23-19.3,0-16.23-13.21-29.44-29.44-29.44-7.38,0-14.12,2.73-19.3,7.23l-3.12-3.11C98.82,3.22,106.67,0,115.26,0h0ZM105.15,26.64c-1.45,2.03-2.31,4.52-2.31,7.2s.86,5.17,2.31,7.2c.4.56.85,1.09,1.33,1.58.49.49,1.02.93,1.58,1.33,2.03,1.45,4.52,2.31,7.2,2.31s5.17-.86,7.2-2.31l3.14,3.14c-2.85,2.23-6.44,3.57-10.34,3.57s-7.48-1.34-10.34-3.57c-.54-.42-1.06-.88-1.55-1.36s-.94-1-1.36-1.55c-2.23-2.85-3.57-6.44-3.57-10.34s1.34-7.48,3.57-10.34l3.14,3.14ZM134.55,17.46c3.76,4.42,6.03,10.14,6.03,16.38s-2.27,11.96-6.03,16.38c-.45.52-.91,1.03-1.39,1.52-.49.48-.99.95-1.52,1.39-4.42,3.76-10.14,6.03-16.38,6.03s-11.96-2.28-16.38-6.03l3.12-3.12c3.61,2.97,8.24,4.75,13.27,4.75s9.65-1.79,13.27-4.76c.53-.44,1.04-.9,1.53-1.38.49-.48.95-.99,1.38-1.53,2.97-3.61,4.75-8.23,4.75-13.27s-1.78-9.65-4.75-13.27l3.11-3.11ZM115.26,17.02c3.9,0,7.48,1.33,10.34,3.57.54.42,1.06.88,1.55,1.36.49.49.94,1,1.36,1.55,2.23,2.85,3.57,6.44,3.57,10.34s-1.34,7.48-3.57,10.34l-3.14-3.14c1.45-2.03,2.31-4.52,2.31-7.2s-.86-5.16-2.31-7.2c-.4-.56-.85-1.09-1.33-1.58-.49-.49-1.02-.93-1.58-1.33-2.03-1.45-4.52-2.31-7.2-2.31s-5.17.86-7.2,2.31l-3.14-3.14c2.85-2.23,6.44-3.57,10.34-3.57h0ZM115.26,25.54c1.54,0,2.99.43,4.23,1.17.6.36,1.15.78,1.64,1.27s.91,1.04,1.27,1.64c.74,1.24,1.17,2.68,1.17,4.22s-.43,2.99-1.17,4.23c-.36.6-.78,1.15-1.27,1.64-.49.49-1.04.91-1.64,1.27-1.24.73-2.68,1.17-4.23,1.17s-2.98-.43-4.22-1.17c-.6-.36-1.15-.78-1.64-1.27-.49-.49-.91-1.04-1.27-1.64-.74-1.24-1.17-2.68-1.17-4.23s.43-2.98,1.17-4.22c.36-.6.78-1.15,1.27-1.64s1.04-.91,1.64-1.27c1.24-.74,2.68-1.17,4.22-1.17h0Z"/>
          <path class="cls-2" d="M224.95,65.74h-5.02l-49.4-49.47v49.47h-3.98V7.55l58.4,58.19ZM214.14,65.74h-4.89l-30.68-30.69v30.69h-3.89V26.11l39.46,39.63ZM203.46,65.74h-4.92l-11.92-11.97v11.97h-3.96v-20.81l20.79,20.81ZM192.76,65.74h-2.04v-2.04l2.04,2.04ZM212.8,47.93l-4.34-4.32V2.13h4.34v45.8ZM221.5,56.57l-4.34-4.31V2.13h4.34v54.44ZM230.19,65.23l-4.34-4.34V2.13h4.34v63.1Z"/>
          <path class="cls-2" d="M250.59,52.48c3.45,4.33,8.27,7.29,13.76,8.39,1.56.31,3.13.47,4.69.47,4.02,0,7.97-1.04,11.52-3.04l3.49,4.43c-12.68,7.66-29.14,4.53-38.13-7.14l4.67-3.11ZM258.78,47.15c1.97,2.15,4.56,3.63,7.48,4.21,2.79.56,5.62.26,8.18-.84l3.54,4.5c-3.93,2.06-8.41,2.71-12.82,1.82-4.42-.89-8.3-3.22-11.13-6.64l4.48-2.98.05.08.22-.15ZM270.88,9.72c-4.59,3.31-7.74,8.15-8.91,13.73-1.08,5.2-.33,10.49,2.11,15.12l.07.12-2.28,1.49h0s-2.12,1.26-2.12,1.26c-6.74-12.26-3.27-27.78,8.18-35.98l2.94,4.25ZM278.17,34.44c.61,1.67.75,3.47.39,5.25-.51,2.55-1.99,4.75-4.16,6.2-2.17,1.44-4.77,1.96-7.32,1.44-1.82-.37-3.46-1.23-4.78-2.48l15.24-9.98h0s.63-.42.63-.42ZM276.15,17.37c-2.62,1.95-4.42,4.76-5.09,7.98-.57,2.74-.27,5.52.83,8.03.03.06.05.13.08.19l-4.36,2.86-.07-.15c-1.84-3.7-2.39-7.88-1.53-11.99.95-4.54,3.49-8.48,7.21-11.19l2.94,4.26ZM284.09.27c8.43,0,16.71,3.82,22.11,10.88l-4.34,2.84c-3.28-4.15-7.87-7-13.11-8.09-4.9-1.02-9.88-.41-14.33,1.71l-2.97-4.3c4.01-2.06,8.34-3.05,12.63-3.05h0ZM279.07,20.34c3.56-2.33,8.14-1.88,11.19.81l-14.28,9.5h0s-.59.4-.59.4c-.53-1.55-.65-3.22-.31-4.86.5-2.42,1.92-4.49,3.98-5.85h0ZM287.91,9.93c4.17.87,7.83,3.09,10.49,6.33l-4.36,2.86c-.09-.1-.19-.2-.29-.3-3.6-3.74-9.07-5.04-13.94-3.38l-3.02-4.37c3.48-1.51,7.33-1.92,11.11-1.13h0ZM286.39,29.05c1.95,3.87,2.55,8.24,1.68,12.55-.89,4.42-3.22,8.3-6.65,11.13l-3.46-4.39c2.38-2.01,4.01-4.74,4.63-7.84.57-2.86.24-5.75-.93-8.36l4.72-3.09ZM294.54,23.72c6.78,12.3,3.75,27.79-7.11,36.64l-3.46-4.39c4.19-3.44,7.05-8.17,8.13-13.56,1.08-5.38.28-10.85-2.25-15.63l3.14-2.06h0s1.55-1,1.55-1Z"/>
          <path class="cls-2" d="M381.95,6.81h-63.72V2.47h63.72v4.34ZM381.95,15.26h-63.72v-4.34h63.72v4.34ZM343.81,65.74h-4.34V19.55h4.34v46.19ZM352.26,65.74h-4.34V19.55h4.34v46.19ZM360.71,65.74h-4.34V19.55h4.34v46.19Z"/>
          <path class="cls-2" d="M458.44,7.19h-60.85V2.4h60.85v4.79ZM458.44,15.65h-60.85v-4.79h60.85v4.79ZM458.44,32.26h-60.85v-4.79h60.85v4.79ZM458.44,40.72h-60.85v-4.79h60.85v4.79ZM458.44,57.32h-60.85v-4.79h60.85v4.79ZM458.44,65.79h-60.85v-4.79h60.85v4.79ZM450.55,48.6h-34.45l-10.86-3.97h34.38l10.94,3.97ZM450.36,23.4h-34.05l-10.86-3.97h34.05l10.86,3.97Z"/>
          <path class="cls-2" d="M481.84,14.79h-4.54V2.34h4.54v12.45ZM481.84,65.6h-4.54V28.26h4.54v37.34ZM507.04,18.91c1.44,0,2.62,1.18,2.62,2.62s-1.17,2.62-2.62,2.62h-29.68v-5.24h29.68ZM507.62,2.35c4.35,0,8.36,1.46,11.58,3.9l-3.1,3.1c-.13-.09-.25-.18-.38-.27-.9-.61-1.87-1.12-2.89-1.52-1.71-.67-3.56-1.04-5.51-1.04h-21.37V2.34h21.67ZM490.5,65.6h-4.54v-29.06h4.54v29.06ZM507.33,10.63c2.13,0,4.13.62,5.81,1.69l-3.16,3.16c-.3-.15-.61-.28-.94-.38-.21-.07-.43-.12-.65-.17-.44-.09-.89-.14-1.36-.14h-21.07v-4.17h21.37ZM513.08,30.78c-1.67,1.04-3.64,1.64-5.75,1.64h-21.37v-4.16h21.07c1.03,0,2-.24,2.87-.65l3.17,3.17ZM519.15,36.84c-1.63,1.23-3.47,2.21-5.45,2.87-.69.23-1.39.43-2.11.58-1.28.27-2.6.41-3.96.41h-13.01v-4.16h12.71c3.25,0,6.26-1.04,8.71-2.79l3.1,3.1ZM517.17,65.68h-4.83l-15.23-20.86h5.12l14.94,20.86ZM526.89,65.68h-4.67l-14.94-20.86h.34c1.48,0,2.93-.14,4.33-.41l14.93,21.27ZM516.15,15.13c1.31,1.8,2.08,4.01,2.08,6.4s-.79,4.65-2.13,6.46l-3.18-3.18c.54-.97.85-2.09.85-3.28s-.29-2.26-.81-3.21l3.19-3.19ZM522.19,9.08c2.87,3.35,4.61,7.7,4.61,12.45s-1.76,9.14-4.65,12.5l-3.11-3.11c2.07-2.57,3.3-5.84,3.3-9.39,0-3.37-1.11-6.48-2.98-8.98-.09-.12-.18-.24-.28-.35l3.11-3.11Z"/>
          <path class="cls-2" d="M648.85,65.75h-5.02l-49.4-49.47v49.47h-3.98V7.55l58.4,58.2ZM638.03,65.75h-4.89l-30.68-30.69v30.69h-3.89V26.11l39.46,39.63ZM627.36,65.75h-4.92l-11.92-11.98v11.98h-3.96v-20.81l20.79,20.81ZM616.65,65.75h-2.04v-2.05l2.04,2.05ZM654.6,65.75l-3.98-3.97V16.27l-22.74,22.77-2.45-2.44,29.17-29.06v58.2ZM646.47,57.67l-3.89-4v-18.61l-9.34,9.35-2.5-2.49,15.73-15.8v31.56ZM638.49,49.65l-2.32-2.31,2.32-2.35v4.67Z"/>
          <path class="cls-2" d="M731.43,65.68h-4.63l-24.54-48.9-24.54,48.9h-4.63l29.17-58.12,29.17,58.12ZM722.2,65.68h-4.63l-15.31-30.51-15.31,30.51h-4.63l19.94-39.73,19.94,39.73ZM712.97,65.68h-4.63l-6.08-12.11-6.08,12.11h-4.63l10.71-21.33,10.71,21.33ZM703.73,65.68h-2.95l1.48-2.94,1.47,2.94Z"/>
          <path class="cls-2" d="M759.24,65.53h-5.73l41.15-63.26h5.73l-41.15,63.26ZM787.71,5.56h-33.97v-3.26h36.13l-2.16,3.26ZM782.72,13.03h-28.98v-3.26h31.14l-2.16,3.26ZM778.02,20.37h-24.28v-3.26h26.43l-2.16,3.26ZM769.83,65.53h-5.73l41.15-63.26h5.73l-41.15,63.26ZM780.43,65.53h-5.73l41.15-63.26h5.73l-41.15,63.26ZM825.08,65.6h-39.87l2.16-3.26h37.71v3.26ZM825.08,58.12h-34.88l2.16-3.26h32.73v3.26ZM825.08,50.79h-30.18l2.16-3.26h28.02v3.26Z"/>
          <path class="cls-2" d="M904.41,7.19h-60.85V2.4h60.85v4.79ZM904.41,15.65h-60.85v-4.79h60.85v4.79ZM904.41,32.26h-60.85v-4.79h60.85v4.79ZM904.41,40.72h-60.85v-4.79h60.85v4.79ZM904.41,57.32h-60.85v-4.79h60.85v4.79ZM904.41,65.79h-60.85v-4.79h60.85v4.79ZM896.52,48.6h-34.45l-10.86-3.97h34.38l10.94,3.97ZM896.33,23.4h-34.05l-10.86-3.97h34.05l10.86,3.97Z"/>
        </g>
      </g>
    </g>
  </g>
</svg>